<svg xmlns:xlink="http://www.w3.org/1999/xlink" xmlns="http://www.w3.org/2000/svg" viewBox="0 0 500 576" height="706" width="500"><title>storybook-logo-final</title><desc>Created using Figma</desc><g transform="matrix(2 0 0 2 -4322 -506)"><clipPath clip-rule="evenodd" id="a"><path fill="#FFF" d="M2161 253h1020v288H2161V253z"></path></clipPath><g clip-path="url(#a)"><use fill="#B57EE5" transform="translate(2166 275)" xlink:href="#b"></use><use fill="#F1618C" transform="translate(2180 261)" xlink:href="#c"></use><use fill="#FFF" transform="translate(2326 261.5)" xlink:href="#d"></use><g transform="translate(2393 300)"><use fill="#6DABF5" xlink:href="#e"></use><use fill="#F3AD38" xlink:href="#f"></use><use fill="#B57EE6" xlink:href="#g"></use><use fill="#F16161" xlink:href="#h"></use><use fill="#B57EE5" xlink:href="#i"></use><use fill="#A2E05E" xlink:href="#j"></use></g><use fill="#FFF" transform="translate(2220 301)" xlink:href="#k"></use></g></g><defs><path d="M21 246L9 0H0l9 246h12z" id="b"></path><path d="M12 260L0 14 196 0v269l-184-9z" id="c"></path><path d="M0 35.5L2.5 2 26 0v35.5L14.182 24.81 0 35.5z" id="d"></path><path d="M74.64 65.28l38.64-.96C114.24 26.88 94.8 8.4 60.96 8.4s-52.8 19.2-52.8 48c0 50.16 64.8 51.12 64.8 78.48 0 7.68-3.6 12.24-11.52 12.24-10.32 0-14.4-6.72-13.92-25.44H6.96c-3.12 46.32 24 56.88 54.96 56.88 30 0 53.52-13.92 53.52-44.16 0-53.76-65.76-52.32-65.76-78.96 0-10.8 7.68-12.24 12.24-12.24 4.8 0 13.44 1.92 12.72 22.08z" id="k"></path></defs></svg>